<?xml version="1.0" encoding="UTF-8" standalone="no"?>
<!-- Created with Inkscape (http://www.inkscape.org/) -->

<svg
   xmlns:dc="http://purl.org/dc/elements/1.1/"
   xmlns:cc="http://creativecommons.org/ns#"
   xmlns:rdf="http://www.w3.org/1999/02/22-rdf-syntax-ns#"
   xmlns:svg="http://www.w3.org/2000/svg"
   xmlns="http://www.w3.org/2000/svg"
   xmlns:sodipodi="http://sodipodi.sourceforge.net/DTD/sodipodi-0.dtd"
   xmlns:inkscape="http://www.inkscape.org/namespaces/inkscape"
   width="132.29167mm"
   height="79.375mm"
   viewBox="0 0 132.29167 79.375"
   version="1.1"
   id="svg16"
   inkscape:version="0.92.1 r15371"
   sodipodi:docname="peoples-republic-of-altis.svg">
  <defs
     id="defs10" />
  <sodipodi:namedview
     id="base"
     pagecolor="#ffffff"
     bordercolor="#666666"
     borderopacity="1.0"
     inkscape:pageopacity="0.0"
     inkscape:pageshadow="2"
     inkscape:zoom="1.4142136"
     inkscape:cx="246.45432"
     inkscape:cy="152.63129"
     inkscape:document-units="mm"
     inkscape:current-layer="layer1"
     showgrid="false"
     fit-margin-top="0"
     fit-margin-left="0"
     fit-margin-right="0"
     fit-margin-bottom="0"
     inkscape:snap-global="true"
     showguides="false"
     inkscape:guide-bbox="true"
     inkscape:snap-others="true"
     inkscape:showpageshadow="false"
     inkscape:snap-page="true"
     inkscape:window-width="1910"
     inkscape:window-height="1052"
     inkscape:window-x="0"
     inkscape:window-y="24"
     inkscape:window-maximized="1"
     inkscape:snap-grids="false"
     inkscape:snap-to-guides="false">
    <sodipodi:guide
       position="135.95331,39.687499"
       orientation="0,1"
       id="guide8816"
       inkscape:locked="false" />
    <sodipodi:guide
       position="66.340472,38.072543"
       orientation="1,0"
       id="guide8839"
       inkscape:locked="false" />
    <sodipodi:guide
       position="58.076039,39.6875"
       orientation="1,0"
       id="guide8841"
       inkscape:locked="false" />
    <sodipodi:guide
       position="-9.9999998,74.264999"
       orientation="0,1"
       id="guide8843"
       inkscape:locked="false"
       inkscape:label=""
       inkscape:color="rgb(0,0,255)" />
    <sodipodi:guide
       position="-20,4.8409999"
       orientation="0,1"
       id="guide8845"
       inkscape:locked="false"
       inkscape:label=""
       inkscape:color="rgb(0,0,255)" />
    <sodipodi:guide
       position="121.79472,87.744582"
       orientation="1,0"
       id="guide4496"
       inkscape:locked="false" />
    <sodipodi:guide
       position="77.454704,66.790653"
       orientation="1,0"
       id="guide4498"
       inkscape:locked="false" />
    <sodipodi:guide
       position="66.498265,59.473371"
       orientation="0,1"
       id="guide4506"
       inkscape:locked="false" />
    <inkscape:grid
       type="xygrid"
       id="grid4508" />
  </sodipodi:namedview>
  <metadata
     id="metadata13">
    <rdf:RDF>
      <cc:Work
         rdf:about="">
        <dc:format>image/svg+xml</dc:format>
        <dc:type
           rdf:resource="http://purl.org/dc/dcmitype/StillImage" />
        <dc:title />
      </cc:Work>
    </rdf:RDF>
  </metadata>
  <g
     inkscape:label="Layer 1"
     inkscape:groupmode="layer"
     id="layer1"
     transform="translate(-38.931545,-57.74107)"
     style="display:inline">
    <rect
       style="opacity:1;fill:#cc0000;fill-opacity:1;stroke:none;paint-order:markers fill stroke"
       id="rect35"
       width="132.29167"
       height="79.375"
       x="38.931545"
       y="57.74107"
       rx="0"
       ry="0" />
    <g
       id="g4494"
       transform="matrix(0.50147126,0,0,0.50147126,19.408494,28.785583)">
      <path
         sodipodi:nodetypes="cccc"
         inkscape:connector-curvature="0"
         id="path8814"
         d="M 38.938779,57.742086 171.22322,97.428554 38.984268,137.11605 Z"
         style="fill:#ffd700;fill-opacity:1;fill-rule:evenodd;stroke:none;stroke-width:0.26458332px;stroke-linecap:butt;stroke-linejoin:miter;stroke-opacity:1" />
      <path
         sodipodi:nodetypes="cccc"
         inkscape:connector-curvature="0"
         id="path8837"
         d="m 38.931545,57.74107 66.340475,39.6875 -66.287752,39.68748 z"
         style="fill:#ffffff;fill-opacity:1;fill-rule:evenodd;stroke:none;stroke-width:0.26458332px;stroke-linecap:butt;stroke-linejoin:miter;stroke-opacity:1" />
      <path
         sodipodi:nodetypes="cccc"
         inkscape:connector-curvature="0"
         id="path8851"
         d="m 38.931545,62.79348 58.076038,34.63509 -58.070191,34.8465 z"
         style="fill:#000000;fill-opacity:1;fill-rule:evenodd;stroke:none;stroke-width:0.26458332px;stroke-linecap:butt;stroke-linejoin:miter;stroke-opacity:1" />
    </g>
    <path
       sodipodi:type="star"
       style="opacity:1;fill:#ffd700;fill-opacity:1;stroke:none;stroke-width:0.52916664;stroke-miterlimit:4;stroke-dasharray:none"
       id="path4504"
       sodipodi:sides="5"
       sodipodi:cx="141.45613"
       sodipodi:cy="81.84176"
       sodipodi:r1="13.658754"
       sodipodi:r2="5.1903267"
       sodipodi:arg1="-1.5707963"
       sodipodi:arg2="-0.9424778"
       inkscape:flatsided="false"
       inkscape:rounded="0"
       inkscape:randomized="0"
       d="m 141.45613,68.183004 3.0508,9.459692 9.93945,-0.02172 -8.05395,5.824686 3.09212,9.446265 -8.02842,-5.859838 -8.02841,5.859838 3.09212,-9.446265 -8.05396,-5.824687 9.93945,0.02173 z"
       inkscape:transform-center-x="1.2916483e-06"
       inkscape:transform-center-y="-1.3042952" />
    <path
       style="fill:#ffd700;fill-opacity:1;stroke-width:0.08124929"
       d="m 154.77977,127.04101 c -0.40786,-0.14466 -0.64806,-0.36158 -2.75096,-2.48424 l -2.30406,-2.32572 -0.90527,0.4005 c -1.77495,0.78526 -2.97612,1.03114 -5.00837,1.02527 -1.23297,-0.004 -1.65189,-0.0366 -2.33092,-0.18333 -2.28654,-0.4944 -4.57325,-1.69753 -6.2554,-3.29122 l -0.33953,-0.32168 -0.13179,0.31592 c -0.19301,0.46274 -0.55648,0.79575 -1.1672,1.06941 -0.29739,0.13326 -0.60026,0.26219 -0.67306,0.28653 -0.0728,0.0243 -0.41588,0.49495 -0.76239,1.04584 -1.55142,2.46651 -2.14246,3.18981 -3.16585,3.87429 -0.89545,0.59893 -1.22792,0.70468 -1.87707,0.59712 -1.05058,-0.17409 -1.63092,-0.75435 -1.71831,-1.71811 -0.0835,-0.92079 0.22221,-1.5908 1.20545,-2.64187 0.69983,-0.74813 1.50132,-1.3748 3.1267,-2.44475 1.34458,-0.8851 1.3997,-0.93212 1.52547,-1.30125 0.269,-0.78948 0.84656,-1.24883 1.57493,-1.25259 0.18992,-7.1e-4 0.3453,-0.0356 0.3453,-0.0768 0,-0.0412 0.098,-0.19153 0.21786,-0.33393 0.1996,-0.23721 0.24978,-0.25584 0.59898,-0.22227 0.20963,0.0201 0.49201,0.11553 0.62753,0.21206 l 0.24639,0.17544 0.44676,-0.50597 0.44678,-0.50597 0.39859,0.37284 c 2.41878,2.26247 6.15738,3.14316 9.54982,2.24961 0.34632,-0.0912 0.62968,-0.19281 0.62968,-0.22574 0,-0.0734 -10.96537,-11.21597 -11.03759,-11.21597 -0.0283,0 -0.82893,0.77674 -1.77905,1.72609 l -1.72749,1.72608 -1.99485,-1.99485 -1.99486,-1.99486 0.79668,-0.77702 c 3.22741,-3.14772 6.72995,-6.404129 6.88819,-6.404129 0.28584,0 6.56405,0.725459 6.60141,0.762809 0.0187,0.0187 -0.90091,0.98339 -2.04357,2.1438 -1.14265,1.16039 -2.07755,2.1251 -2.07755,2.1438 0,0.0187 2.65591,2.66405 5.90199,5.87856 l 5.90197,5.84458 0.30625,-0.35556 c 0.16843,-0.19557 0.46284,-0.62929 0.65425,-0.96384 2.63794,-4.61053 0.27256,-11.81134 -6.53073,-19.881217 -0.59092,-0.700915 -1.1658,-1.38859 -1.27751,-1.528165 l -0.20313,-0.253751 0.325,0.193669 c 1.54588,0.921231 3.24435,2.102512 4.78075,3.324956 1.20963,0.962485 3.48568,3.198478 4.30994,4.234098 1.91143,2.4016 3.1631,4.92371 3.72212,7.50012 0.24342,1.12186 0.26618,3.78399 0.0415,4.84978 -0.43022,2.0404 -1.39119,4.04658 -2.64274,5.51715 l -0.37367,0.43906 2.13106,2.09539 c 1.71581,1.68708 2.17017,2.17939 2.33178,2.52653 0.33807,0.72617 0.23632,1.44438 -0.28919,2.0414 -0.59587,0.67693 -1.46359,0.91846 -2.27098,0.6321 z"
       id="path8517"
       inkscape:connector-curvature="0" />
  </g>
</svg>
